<svg xmlns="http://www.w3.org/2000/svg" viewBox="0 0 64 64">
  <defs>
    <linearGradient id="bg" x1="8" y1="6" x2="56" y2="58" gradientUnits="userSpaceOnUse">
      <stop stop-color="#eef5ff"/>
      <stop offset="1" stop-color="#dbeaff"/>
    </linearGradient>
    <filter id="shadow" x="-20%" y="-20%" width="140%" height="150%">
      <feDropShadow dx="0" dy="3" stdDeviation="3" flood-color="#7b1f1a" flood-opacity="0.32"/>
    </filter>
  </defs>
  <rect width="64" height="64" rx="16" fill="url(#bg)"/>
  <path d="M6 45c10-7 16-7 25-2s16 5 27-3" fill="none" stroke="#ffffff" stroke-width="11" stroke-linecap="round"/>
  <path d="M6 45c10-7 16-7 25-2s16 5 27-3" fill="none" stroke="#9bbcf4" stroke-width="3" stroke-linecap="round" stroke-dasharray="7 7"/>
  <path d="M13 21c8 5 15 5 23 0s14-5 20-1" fill="none" stroke="#ffffff" stroke-width="8" stroke-linecap="round" opacity="0.9"/>
  <path d="M13 21c8 5 15 5 23 0s14-5 20-1" fill="none" stroke="#b7cff5" stroke-width="2.5" stroke-linecap="round"/>
  <path filter="url(#shadow)" d="M32 9c-9.1 0-16.5 7.1-16.5 15.9 0 11.7 16.5 30.1 16.5 30.1s16.5-18.4 16.5-30.1C48.5 16.1 41.1 9 32 9Z" fill="#d93025"/>
  <circle cx="32" cy="25" r="7.2" fill="#ffffff"/>
  <circle cx="32" cy="25" r="3.2" fill="#d93025" opacity="0.9"/>
</svg>
